<svg width="15" height="15" viewBox="0 0 15 15" fill="none" xmlns="http://www.w3.org/2000/svg">
<path d="M6.84922 1.2C5.81589 1.2 4.87422 1.45 4.02422 1.95C3.17422 2.45 2.49089 3.13333 1.97422 4C1.45755 4.86667 1.19922 5.80833 1.19922 6.825C1.19922 7.84167 1.45755 8.78333 1.97422 9.65C2.49089 10.5167 3.17422 11.2 4.02422 11.7C4.87422 12.2 5.81589 12.45 6.84922 12.45C7.48255 12.45 8.09922 12.3417 8.69922 12.125C9.29922 11.9083 9.84922 11.6167 10.3492 11.25L12.6992 13.55C12.7992 13.6833 12.9409 13.75 13.1242 13.75C13.3076 13.75 13.4576 13.6917 13.5742 13.575C13.6909 13.4583 13.7492 13.3083 13.7492 13.125C13.7492 12.9417 13.6826 12.8 13.5492 12.7L11.2492 10.35C11.6159 9.85 11.9076 9.3 12.1242 8.7C12.3409 8.1 12.4492 7.48333 12.4492 6.85C12.4492 5.81667 12.1992 4.86667 11.6992 4C11.1992 3.13333 10.5159 2.45 9.64922 1.95C8.78255 1.45 7.84922 1.2 6.84922 1.2ZM6.84922 2.45C7.64922 2.45 8.38255 2.65 9.04922 3.05C9.71589 3.45 10.2409 3.98333 10.6242 4.65C11.0076 5.31667 11.1992 6.04167 11.1992 6.825C11.1992 7.60833 11.0076 8.34167 10.6242 9.025C10.2409 9.70833 9.71589 10.2417 9.04922 10.625C8.38255 11.0083 7.64922 11.2 6.84922 11.2C6.04922 11.2 5.31589 11.0083 4.64922 10.625C3.98255 10.2417 3.44922 9.70833 3.04922 9.025C2.64922 8.34167 2.44922 7.60833 2.44922 6.825C2.44922 6.04167 2.64922 5.31667 3.04922 4.65C3.44922 3.98333 3.98255 3.45 4.64922 3.05C5.31589 2.65 6.04922 2.45 6.84922 2.45Z" fill="white"/>
</svg>
