<svg width="18" height="18" viewBox="0 0 18 18" fill="none" xmlns="http://www.w3.org/2000/svg">
<path d="M3.00094 1.68C2.44094 1.68 1.96094 1.88 1.56094 2.28C1.16094 2.68 0.960938 3.17 0.960938 3.75C0.960938 4.33 1.16094 4.82 1.56094 5.22C1.96094 5.62 2.44094 5.82 3.00094 5.82C3.56094 5.82 4.04094 5.62 4.44094 5.22C4.84094 4.82 5.04094 4.33 5.04094 3.75C5.04094 3.17 4.84094 2.68 4.44094 2.28C4.04094 1.88 3.56094 1.68 3.00094 1.68ZM3.00094 2.82C3.24094 2.82 3.46094 2.91 3.66094 3.09C3.86094 3.27 3.96094 3.49 3.96094 3.75C3.96094 4.01 3.86094 4.23 3.66094 4.41C3.46094 4.59 3.24094 4.68 3.00094 4.68C2.76094 4.68 2.54094 4.59 2.34094 4.41C2.14094 4.23 2.04094 4.01 2.04094 3.75C2.04094 3.49 2.14094 3.27 2.34094 3.09C2.54094 2.91 2.76094 2.82 3.00094 2.82ZM3.00094 12.18C2.44094 12.18 1.96094 12.38 1.56094 12.78C1.16094 13.18 0.960938 13.67 0.960938 14.25C0.960938 14.83 1.16094 15.32 1.56094 15.72C1.96094 16.12 2.44094 16.32 3.00094 16.32C3.56094 16.32 4.04094 16.12 4.44094 15.72C4.84094 15.32 5.04094 14.83 5.04094 14.25C5.04094 13.67 4.84094 13.18 4.44094 12.78C4.04094 12.38 3.56094 12.18 3.00094 12.18ZM3.00094 13.32C3.24094 13.32 3.46094 13.41 3.66094 13.59C3.86094 13.77 3.96094 13.99 3.96094 14.25C3.96094 14.51 3.86094 14.73 3.66094 14.91C3.46094 15.09 3.24094 15.18 3.00094 15.18C2.76094 15.18 2.54094 15.09 2.34094 14.91C2.14094 14.73 2.04094 14.51 2.04094 14.25C2.04094 13.99 2.14094 13.77 2.34094 13.59C2.54094 13.41 2.76094 13.32 3.00094 13.32ZM9.00094 1.68C8.44094 1.68 7.96094 1.88 7.56094 2.28C7.16094 2.68 6.96094 3.17 6.96094 3.75C6.96094 4.33 7.16094 4.82 7.56094 5.22C7.96094 5.62 8.44094 5.82 9.00094 5.82C9.56094 5.82 10.0409 5.62 10.4409 5.22C10.8409 4.82 11.0409 4.33 11.0409 3.75C11.0409 3.17 10.8409 2.68 10.4409 2.28C10.0409 1.88 9.56094 1.68 9.00094 1.68ZM9.00094 2.82C9.24094 2.82 9.46094 2.91 9.66094 3.09C9.86094 3.27 9.96094 3.49 9.96094 3.75C9.96094 4.01 9.86094 4.23 9.66094 4.41C9.46094 4.59 9.24094 4.68 9.00094 4.68C8.76094 4.68 8.54094 4.59 8.34094 4.41C8.14094 4.23 8.04094 4.01 8.04094 3.75C8.04094 3.49 8.14094 3.27 8.34094 3.09C8.54094 2.91 8.76094 2.82 9.00094 2.82ZM9.00094 12.18C8.44094 12.18 7.96094 12.38 7.56094 12.78C7.16094 13.18 6.96094 13.67 6.96094 14.25C6.96094 14.83 7.16094 15.32 7.56094 15.72C7.96094 16.12 8.44094 16.32 9.00094 16.32C9.56094 16.32 10.0409 16.12 10.4409 15.72C10.8409 15.32 11.0409 14.83 11.0409 14.25C11.0409 13.67 10.8409 13.18 10.4409 12.78C10.0409 12.38 9.56094 12.18 9.00094 12.18ZM9.00094 13.32C9.24094 13.32 9.46094 13.41 9.66094 13.59C9.86094 13.77 9.96094 13.99 9.96094 14.25C9.96094 14.51 9.86094 14.73 9.66094 14.91C9.46094 15.09 9.24094 15.18 9.00094 15.18C8.76094 15.18 8.54094 15.09 8.34094 14.91C8.14094 14.73 8.04094 14.51 8.04094 14.25C8.04094 13.99 8.14094 13.77 8.34094 13.59C8.54094 13.41 8.76094 13.32 9.00094 13.32ZM15.0009 1.68C14.4409 1.68 13.9609 1.88 13.5609 2.28C13.1609 2.68 12.9609 3.17 12.9609 3.75C12.9609 4.33 13.1609 4.82 13.5609 5.22C13.9609 5.62 14.4409 5.82 15.0009 5.82C15.5609 5.82 16.0409 5.62 16.4409 5.22C16.8409 4.82 17.0409 4.33 17.0409 3.75C17.0409 3.17 16.8409 2.68 16.4409 2.28C16.0409 1.88 15.5609 1.68 15.0009 1.68ZM15.0009 2.82C15.2409 2.82 15.4609 2.91 15.6609 3.09C15.8609 3.27 15.9609 3.49 15.9609 3.75C15.9609 4.01 15.8609 4.23 15.6609 4.41C15.4609 4.59 15.2409 4.68 15.0009 4.68C14.7609 4.68 14.5409 4.59 14.3409 4.41C14.1409 4.23 14.0409 4.01 14.0409 3.75C14.0409 3.49 14.1409 3.27 14.3409 3.09C14.5409 2.91 14.7609 2.82 15.0009 2.82ZM15.0009 12.18C14.4409 12.18 13.9609 12.38 13.5609 12.78C13.1609 13.18 12.9609 13.67 12.9609 14.25C12.9609 14.83 13.1609 15.32 13.5609 15.72C13.9609 16.12 14.4409 16.32 15.0009 16.32C15.5609 16.32 16.0409 16.12 16.4409 15.72C16.8409 15.32 17.0409 14.83 17.0409 14.25C17.0409 13.67 16.8409 13.18 16.4409 12.78C16.0409 12.38 15.5609 12.18 15.0009 12.18ZM15.0009 13.32C15.2409 13.32 15.4609 13.41 15.6609 13.59C15.8609 13.77 15.9609 13.99 15.9609 14.25C15.9609 14.51 15.8609 14.73 15.6609 14.91C15.4609 15.09 15.2409 15.18 15.0009 15.18C14.7609 15.18 14.5409 15.09 14.3409 14.91C14.1409 14.73 14.0409 14.51 14.0409 14.25C14.0409 13.99 14.1409 13.77 14.3409 13.59C14.5409 13.41 14.7609 13.32 15.0009 13.32ZM2.46094 5.22V12.72C2.46094 12.88 2.51094 13.02 2.61094 13.14C2.71094 13.26 2.84094 13.32 3.00094 13.32C3.16094 13.32 3.29094 13.26 3.39094 13.14C3.49094 13.02 3.54094 12.9 3.54094 12.78V5.22C3.54094 5.1 3.49094 4.98 3.39094 4.86C3.29094 4.74 3.16094 4.68 3.00094 4.68C2.84094 4.68 2.71094 4.74 2.61094 4.86C2.51094 4.98 2.46094 5.1 2.46094 5.22ZM8.46094 5.22V12.72C8.46094 12.88 8.51094 13.02 8.61094 13.14C8.71094 13.26 8.84094 13.32 9.00094 13.32C9.16094 13.32 9.29094 13.26 9.39094 13.14C9.49094 13.02 9.54094 12.9 9.54094 12.78V5.22C9.54094 5.1 9.49094 4.98 9.39094 4.86C9.29094 4.74 9.16094 4.68 9.00094 4.68C8.84094 4.68 8.71094 4.74 8.61094 4.86C8.51094 4.98 8.46094 5.1 8.46094 5.22ZM14.4609 5.22V8.22C14.4609 8.3 14.4409 8.36 14.4009 8.4C14.3609 8.44 14.3209 8.46 14.2809 8.46H3.00094C2.84094 8.46 2.71094 8.51 2.61094 8.61C2.51094 8.71 2.46094 8.84 2.46094 9C2.46094 9.16 2.51094 9.29 2.61094 9.39C2.71094 9.49 2.84094 9.54 3.00094 9.54H14.2809C14.6409 9.54 14.9409 9.42 15.1809 9.18C15.4209 8.94 15.5409 8.62 15.5409 8.22V5.28C15.5409 5.12 15.4909 4.98 15.3909 4.86C15.2909 4.74 15.1609 4.68 15.0009 4.68C14.8409 4.68 14.7109 4.74 14.6109 4.86C14.5109 4.98 14.4609 5.1 14.4609 5.22Z" fill="white"/>
</svg>
