<svg width="26" height="34" viewBox="0 0 26 34" fill="none" xmlns="http://www.w3.org/2000/svg">
<mask id="mask0_5_9" style="mask-type:luminance" maskUnits="userSpaceOnUse" x="0" y="4" width="26" height="26">
<path d="M26 4H0V30H26V4Z" fill="white"/>
</mask>
<g mask="url(#mask0_5_9)">
<path d="M25.1522 20.3913H24.3043V16.1522C24.3043 14.7497 23.1633 13.6087 21.7609 13.6087H18.9807L17.8648 10.2608C17.5179 9.22063 16.5482 8.52173 15.4517 8.52173C15.3197 8.52173 6.15383 8.52173 5.93475 8.52173C4.82945 8.52173 3.8871 9.23058 3.53712 10.2174H2.54348C1.141 10.2174 0 11.3584 0 12.7608V16.1522C0 17.5547 1.141 18.6956 2.54348 18.6956H3.39133V20.3913H2.54348C2.07527 20.3913 1.69564 20.7709 1.69564 21.2391C1.69564 21.7074 2.07523 22.087 2.54348 22.087C3.3375 22.087 4.29031 22.087 5.08696 22.087C5.08696 23.9569 6.60831 25.4783 8.47829 25.4783C10.3482 25.4783 11.8696 23.9569 11.8696 22.087H15.8261C15.8261 23.9569 17.3475 25.4783 19.2174 25.4783C21.0875 25.4783 22.6088 23.9569 22.6088 22.087C23.4057 22.087 24.3588 22.087 25.1522 22.087C25.6205 22.087 26.0001 21.7074 26.0001 21.2391C26.0001 20.7709 25.6204 20.3913 25.1522 20.3913ZM3.39133 17H2.54348C2.07599 17 1.69564 16.6196 1.69564 16.1521V12.7608C1.69564 12.2933 2.07599 11.913 2.54348 11.913H3.39133C3.39133 12.4532 3.39133 16.4761 3.39133 17ZM11.8695 10.2174H13.2826H15.4517C15.8173 10.2174 16.1405 10.4503 16.256 10.797L17.1932 13.6086H11.8695V10.2174ZM5.08696 11.0652C5.08696 10.5977 5.46731 10.2173 5.93481 10.2173H10.174V13.6086H5.08696V11.0652ZM8.47829 23.7826C7.5433 23.7826 6.78265 23.0219 6.78265 22.0869C6.78265 21.1519 7.5433 20.3913 8.47829 20.3913C9.4133 20.3913 10.174 21.1519 10.174 22.0869C10.174 23.0219 9.4133 23.7826 8.47829 23.7826ZM19.2174 23.7826C18.2824 23.7826 17.5218 23.0219 17.5218 22.0869C17.5218 21.1519 18.2824 20.3913 19.2174 20.3913C20.1524 20.3913 20.913 21.1519 20.913 22.0869C20.913 23.0219 20.1524 23.7826 19.2174 23.7826ZM22.6087 20.3913H22.1525C21.5651 19.3786 20.4699 18.6956 19.2174 18.6956C17.9649 18.6956 16.8697 19.3786 16.2823 20.3913H11.4133C10.826 19.3786 9.73073 18.6956 8.47829 18.6956C7.22581 18.6956 6.13056 19.3786 5.54323 20.3913H5.08701V17.8478V15.3043C6.46958 15.3043 20.8531 15.3043 21.7609 15.3043C22.2284 15.3043 22.6088 15.6847 22.6088 16.1522L22.6087 20.3913Z" fill="white"/>
<path d="M14.4146 17H12.7189C12.2507 17 11.8711 17.3796 11.8711 17.8478C11.8711 18.3161 12.2507 18.6957 12.7189 18.6957H14.4146C14.8827 18.6957 15.2624 18.3161 15.2624 17.8478C15.2624 17.3796 14.8828 17 14.4146 17Z" fill="white"/>
</g>
</svg>
