<svg width="60" height="60" viewBox="0 0 60 60" fill="none" xmlns="http://www.w3.org/2000/svg">
<g clip-path="url(#clip0_5_334)">
<g clip-path="url(#clip1_5_334)">
<g clip-path="url(#clip2_5_334)">
<mask id="mask0_5_334" style="mask-type:luminance" maskUnits="userSpaceOnUse" x="0" y="0" width="60" height="60">
<path d="M60 0H0V60H60V0Z" fill="white"/>
</mask>
<g mask="url(#mask0_5_334)">
<path d="M8.75573 36.7478L35.3054 10.198C37.136 8.36741 40.104 8.36741 41.9346 10.198L36.8955 5.15894C35.0649 3.32837 32.097 3.32837 30.2664 5.15894L3.71669 31.7087C1.88611 33.5393 1.88611 36.5073 3.71669 38.3378L8.75573 43.3768C6.92515 41.5462 6.92515 38.5783 8.75573 36.7478Z" fill="#EEF1FB"/>
<path d="M50.1537 18.4171C51.9843 20.2477 51.9843 23.2157 50.1537 25.0463L23.6039 51.5959C21.7734 53.4265 18.8054 53.4265 16.9748 51.5959L3.71669 38.3378C1.88611 36.5072 1.88611 33.5392 3.71669 31.7086L30.2664 5.15894C32.097 3.32836 35.0649 3.32836 36.8955 5.15894L43.5247 11.7881L52.9689 2.34387" stroke="#405FF2" stroke-width="3" stroke-miterlimit="10" stroke-linecap="round" stroke-linejoin="round"/>
<path d="M18.9648 31.0458C18.7646 32.4554 19.2066 33.9388 20.2909 35.0231C22.1215 36.8537 25.0895 36.8537 26.9201 35.0231C28.7507 33.1926 28.7507 30.2246 26.9201 28.394C25.0895 26.5634 25.0895 23.5954 26.9201 21.7648C28.7507 19.9342 31.7187 19.9342 33.5493 21.7648C34.6336 22.8491 35.0756 24.3325 34.8754 25.7421" stroke="#405FF2" stroke-width="3" stroke-miterlimit="10" stroke-linecap="round" stroke-linejoin="round"/>
<path d="M16.9766 38.3378L20.2911 35.0232" stroke="#405FF2" stroke-width="3" stroke-miterlimit="10" stroke-linecap="round" stroke-linejoin="round"/>
<path d="M33.5469 21.765L36.8614 18.4504" stroke="#405FF2" stroke-width="3" stroke-miterlimit="10" stroke-linecap="round" stroke-linejoin="round"/>
<path d="M43.5938 57.6562L57.6562 43.5937" stroke="#FF5CF4" stroke-width="3" stroke-miterlimit="10" stroke-linecap="round" stroke-linejoin="round"/>
</g>
</g>
</g>
</g>
<defs>
<clipPath id="clip0_5_334">
<rect width="60" height="60" fill="white"/>
</clipPath>
<clipPath id="clip1_5_334">
<rect width="60" height="60" fill="white"/>
</clipPath>
<clipPath id="clip2_5_334">
<rect width="60" height="60" fill="white"/>
</clipPath>
</defs>
</svg>
