<svg width="26" height="34" viewBox="0 0 26 34" fill="none" xmlns="http://www.w3.org/2000/svg">
<mask id="mask0_5_30" style="mask-type:luminance" maskUnits="userSpaceOnUse" x="0" y="4" width="26" height="26">
<path d="M25.6282 4.37134H0.371094V29.6285H25.6282V4.37134Z" fill="white"/>
</mask>
<g mask="url(#mask0_5_30)">
<path d="M22.0283 13.998H20.0146C19.3417 13.01 18.4464 12.1841 17.4034 11.5951C16.2354 10.9355 14.9091 10.5869 13.568 10.5869H12.9997C12.5875 10.5869 12.2533 10.9211 12.2533 11.3332V13.998H3.97105C2.15258 13.998 0.645686 15.3537 0.405394 17.1072C0.402696 17.1241 0.400384 17.1411 0.398842 17.1585C0.381307 17.3028 0.371094 17.4492 0.371094 17.5982V20.4518C0.371094 20.864 0.70523 21.1981 1.11741 21.1981H3.72864C4.06066 22.4807 5.22782 23.4305 6.61274 23.4305C7.99764 23.4305 9.16481 22.4807 9.4968 21.1981H16.5025C16.8347 22.4807 18.0017 23.4305 19.3866 23.4305C20.7715 23.4305 21.9385 22.4807 22.2707 21.1981H24.8819C25.2941 21.1981 25.6282 20.864 25.6282 20.4518V17.5982C25.6282 15.613 24.0133 13.998 22.0283 13.998ZM13.746 12.0822C15.3955 12.1295 16.96 12.8329 18.0948 13.998H13.746V12.0822ZM1.86372 17.9685H3.01644C3.42861 17.9685 3.76275 17.6344 3.76275 17.2222C3.76275 16.8101 3.42861 16.4759 3.01644 16.4759H2.1888C2.56244 15.8845 3.22147 15.4908 3.97105 15.4908H12.2533V19.7055H9.4968C9.16459 18.423 7.99764 17.4729 6.61274 17.4729C5.22782 17.4729 4.06085 18.423 3.72864 19.7055H1.86372V17.9685ZM8.09881 20.4518C8.09881 21.2714 7.43225 21.9379 6.61274 21.9379C5.79319 21.9379 5.12666 21.2714 5.12666 20.4518C5.12666 19.6323 5.79319 18.9658 6.61274 18.9658C7.43225 18.9658 8.09881 19.6323 8.09881 20.4518ZM20.8727 20.4518C20.8727 21.2714 20.2061 21.9379 19.3866 21.9379C18.5671 21.9379 17.9005 21.2714 17.9005 20.4518C17.9005 19.6323 18.5671 18.9658 19.3866 18.9658C20.2061 18.9658 20.8727 19.6323 20.8727 20.4518ZM22.2707 19.7055C21.9387 18.423 20.7715 17.4729 19.3866 17.4729C18.0017 17.4729 16.8345 18.423 16.5025 19.7055H13.746V15.4908H22.0283C22.7646 15.4908 23.4138 15.8709 23.7907 16.4447H22.6356C22.2235 16.4447 21.8894 16.7789 21.8894 17.191C21.8894 17.6032 22.2235 17.9375 22.6356 17.9375H24.1356V19.7055H22.2707Z" fill="white"/>
</g>
</svg>
