<svg width="10" height="12" viewBox="0 0 10 12" fill="none" xmlns="http://www.w3.org/2000/svg">
<path d="M8.08 12C7.84 12 7.61333 11.9333 7.4 11.8L4.8 10.16C4.72 10.1067 4.64 10.1067 4.56 10.16L1.96 11.8C1.72 11.96 1.45333 12.02 1.16 11.98C0.866667 11.94 0.613333 11.8267 0.4 11.64C0.133333 11.4 0 11.0933 0 10.72V1.28C0 0.933333 0.126667 0.633333 0.38 0.38C0.633333 0.126667 0.933333 0 1.28 0H8.08C8.42667 0 8.72667 0.126667 8.98 0.38C9.23333 0.633333 9.36 0.933333 9.36 1.28V10.72C9.36 11.0667 9.23333 11.3667 8.98 11.62C8.72667 11.8733 8.42667 12 8.08 12ZM4.68 9.08C4.92 9.08 5.14667 9.14667 5.36 9.28L7.96 10.92C7.98667 10.9467 8.02667 10.96 8.08 10.96C8.13333 10.96 8.18 10.94 8.22 10.9C8.26 10.86 8.28 10.8 8.28 10.72V1.28C8.28 1.2 8.26 1.14 8.22 1.1C8.18 1.06 8.13333 1.04 8.08 1.04H1.28C1.22667 1.04 1.18 1.06 1.14 1.1C1.1 1.14 1.08 1.2 1.08 1.28V10.72C1.08 10.8 1.11333 10.8667 1.18 10.92C1.24667 10.9733 1.32 10.9733 1.4 10.92L4 9.28C4.21333 9.14667 4.44 9.08 4.68 9.08Z" fill="#050B20"/>
</svg>
