<svg width="12" height="12" viewBox="0 0 12 12" fill="none" xmlns="http://www.w3.org/2000/svg">
<g clip-path="url(#clip0_5_433)">
<path d="M2.55859 6C2.55859 5.76 2.65193 5.56 2.83859 5.4L7.99859 0.240001C8.15859 0.0799999 8.35193 0 8.57859 0C8.80526 0 9.00526 0.0799999 9.17859 0.240001C9.35193 0.400001 9.43859 0.6 9.43859 0.84C9.43859 1.08 9.34526 1.28 9.15859 1.44L4.59859 6L9.15859 10.56C9.31859 10.72 9.39859 10.92 9.39859 11.16C9.39859 11.4 9.31859 11.6 9.15859 11.76C8.99859 11.92 8.80526 12 8.57859 12C8.35193 12 8.15859 11.92 7.99859 11.76L2.83859 6.6C2.65193 6.44 2.55859 6.24 2.55859 6Z" fill="white"/>
</g>
<defs>
<clipPath id="clip0_5_433">
<rect width="12" height="12" fill="white" transform="matrix(1 0 0 -1 0 12)"/>
</clipPath>
</defs>
</svg>
