<svg width="26" height="34" viewBox="0 0 26 34" fill="none" xmlns="http://www.w3.org/2000/svg">
<path d="M20.3125 14.5624H19.3619C19.2549 14.5631 19.1489 14.5426 19.05 14.5021C18.9509 14.4617 18.8609 14.4021 18.785 14.3268L16.6237 12.1655C16.0908 11.6325 15.4572 11.2108 14.7597 10.9249C14.0623 10.6389 13.315 10.4945 12.5613 10.4999H5.6875C4.61006 10.4999 3.57674 10.9279 2.81488 11.6897C2.05301 12.4516 1.625 13.485 1.625 14.5624V18.6249C1.625 19.2713 1.88181 19.8914 2.33893 20.3485C2.79605 20.8056 3.41603 21.0624 4.0625 21.0624C4.0625 21.8166 4.36211 22.5399 4.89542 23.0732C5.42872 23.6065 6.15204 23.9062 6.90625 23.9062C7.66044 23.9062 8.38378 23.6065 8.91708 23.0732C9.45039 22.5399 9.75 21.8166 9.75 21.0624H15.5188C15.6086 21.7422 15.9424 22.3662 16.4581 22.8182C16.9738 23.2702 17.6361 23.5194 18.3219 23.5194C19.0076 23.5194 19.67 23.2702 20.1856 22.8182C20.7014 22.3662 21.0351 21.7422 21.125 21.0624H21.9375C22.584 21.0624 23.2039 20.8056 23.6611 20.3485C24.1182 19.8914 24.375 19.2713 24.375 18.6249C24.375 17.5475 23.947 16.5141 23.1851 15.7522C22.4232 14.9904 21.39 14.5624 20.3125 14.5624ZM12.6019 12.1249C13.1357 12.1239 13.6645 12.2283 14.1581 12.4317C14.6516 12.6353 15.1002 12.9342 15.4781 13.3112L16.7294 14.5624H6.695C6.54358 14.5634 6.39488 14.5221 6.26567 14.4432C6.13646 14.3642 6.03189 14.2507 5.96375 14.1155L5.02125 12.2305C5.23674 12.162 5.46136 12.1263 5.6875 12.1249H12.6019ZM3.25 18.6249V14.5624C3.25044 14.069 3.4006 13.5874 3.68063 13.1812L4.49313 14.8062C4.69243 15.2207 5.00496 15.5703 5.39459 15.8147C5.78422 16.0592 6.23505 16.1884 6.695 16.1874H11.375V19.4374H9.46561C9.23742 18.9514 8.87548 18.5404 8.42224 18.2525C7.969 17.9646 7.44319 17.8118 6.90625 17.8118C6.36931 17.8118 5.84347 17.9646 5.39023 18.2525C4.93699 18.5404 4.5751 18.9514 4.34687 19.4374H4.0625C3.84701 19.4374 3.64035 19.3518 3.48798 19.1995C3.3356 19.0471 3.25 18.8404 3.25 18.6249ZM6.90625 21.8749C6.66521 21.8749 6.42957 21.8034 6.22915 21.6695C6.02873 21.5356 5.87251 21.3452 5.78027 21.1225C5.68803 20.8999 5.66389 20.6548 5.71092 20.4184C5.75795 20.182 5.87402 19.9648 6.04447 19.7943C6.21491 19.624 6.43207 19.5079 6.66848 19.4608C6.9049 19.4138 7.14995 19.4379 7.37264 19.5302C7.59534 19.6224 7.7857 19.7787 7.9196 19.9791C8.0535 20.1794 8.125 20.4151 8.125 20.6562C8.125 20.9794 7.99661 21.2894 7.76804 21.5179C7.53948 21.7465 7.22948 21.8749 6.90625 21.8749ZM18.2812 21.8749C18.0402 21.8749 17.8046 21.8034 17.6041 21.6695C17.4037 21.5356 17.2475 21.3452 17.1553 21.1225C17.063 20.8999 17.0389 20.6548 17.0859 20.4184C17.1329 20.182 17.249 19.9648 17.4195 19.7943C17.5899 19.624 17.8071 19.5079 18.0435 19.4608C18.2799 19.4138 18.5249 19.4379 18.7477 19.5302C18.9704 19.6224 19.1607 19.7787 19.2946 19.9791C19.4285 20.1794 19.5 20.4151 19.5 20.6562C19.5 20.9794 19.3716 21.2894 19.143 21.5179C18.9145 21.7465 18.6045 21.8749 18.2812 21.8749ZM21.9375 19.4374H20.8406C20.6124 18.9514 20.2505 18.5404 19.7972 18.2525C19.344 17.9646 18.8182 17.8118 18.2812 17.8118C17.7443 17.8118 17.2185 17.9646 16.7653 18.2525C16.312 18.5404 15.9501 18.9514 15.7219 19.4374H13V16.1874H20.3125C20.6533 16.1892 20.9898 16.2625 21.3005 16.4024C21.6112 16.5424 21.8891 16.7459 22.1162 16.9999H21.9375C21.722 16.9999 21.5154 17.0855 21.363 17.2378C21.2106 17.3902 21.125 17.5969 21.125 17.8124C21.125 18.0279 21.2106 18.2346 21.363 18.387C21.5154 18.5393 21.722 18.6249 21.9375 18.6249H22.75C22.75 18.8404 22.6644 19.0471 22.512 19.1995C22.3596 19.3518 22.153 19.4374 21.9375 19.4374Z" fill="white"/>
</svg>
