<svg width="76" height="11" viewBox="0 0 76 11" fill="none" xmlns="http://www.w3.org/2000/svg">
<path d="M4.85648 0.469982C5.09147 0 5.75728 0.0195826 5.97269 0.469982L7.26514 3.07447L10.1242 3.4857C10.6333 3.56403 10.8292 4.19067 10.4571 4.56274L8.40093 6.57975L8.89049 9.41922C8.96882 9.92837 8.42051 10.32 7.97011 10.085L5.42438 8.73383L2.85906 10.085C2.40866 10.32 1.86035 9.92837 1.93868 9.41922L2.42824 6.57975L0.372069 4.56274C0 4.19067 0.195826 3.56403 0.704973 3.4857L3.58361 3.07447L4.85648 0.469982ZM21.1492 0.469982C21.3842 0 22.05 0.0195826 22.2654 0.469982L23.5578 3.07447L26.4169 3.4857C26.926 3.56403 27.1219 4.19067 26.7498 4.56274L24.6936 6.57975L25.1832 9.41922C25.2615 9.92837 24.7132 10.32 24.2628 10.085L21.7171 8.73383L19.1518 10.085C18.7014 10.32 18.1531 9.92837 18.2314 9.41922L18.7209 6.57975L16.6648 4.56274C16.2927 4.19067 16.4885 3.56403 16.9977 3.4857L19.8763 3.07447L21.1492 0.469982ZM37.4419 0.469982C37.6769 0 38.3427 0.0195826 38.5581 0.469982L39.8506 3.07447L42.7096 3.4857C43.2188 3.56403 43.4146 4.19067 43.0425 4.56274L40.9863 6.57975L41.4759 9.41922C41.5542 9.92837 41.0059 10.32 40.5555 10.085L38.0098 8.73383L35.4445 10.085C34.9941 10.32 34.4458 9.92837 34.5241 9.41922L35.0137 6.57975L32.9575 4.56274C32.5854 4.19067 32.7812 3.56403 33.2904 3.4857L36.169 3.07447L37.4419 0.469982ZM53.7346 0.469982C53.9696 0 54.6354 0.0195826 54.8508 0.469982L56.1433 3.07447L59.0023 3.4857C59.5115 3.56403 59.7073 4.19067 59.3352 4.56274L57.2791 6.57975L57.7686 9.41922C57.8469 9.92837 57.2986 10.32 56.8482 10.085L54.3025 8.73383L51.7372 10.085C51.2868 10.32 50.7385 9.92837 50.8168 9.41922L51.3064 6.57975L49.2502 4.56274C48.8781 4.19067 49.074 3.56403 49.5831 3.4857L52.4617 3.07447L53.7346 0.469982ZM70.0273 0.469982C70.2623 0 70.9281 0.0195826 71.1435 0.469982L72.436 3.07447L75.295 3.4857C75.8042 3.56403 76 4.19067 75.6279 4.56274L73.5718 6.57975L74.0613 9.41922C74.1397 9.92837 73.5913 10.32 73.1409 10.085L70.5952 8.73383L68.0299 10.085C67.5795 10.32 67.0312 9.92837 67.1095 9.41922L67.5991 6.57975L65.5429 4.56274C65.1708 4.19067 65.3667 3.56403 65.8758 3.4857L68.7544 3.07447L70.0273 0.469982Z" fill="#DCDCDC"/>
</svg>
