<svg width="12" height="12" viewBox="0 0 12 12" fill="none" xmlns="http://www.w3.org/2000/svg">
<g clip-path="url(#clip0_5_436)">
<path d="M9.15699 6.6L4.0013 11.76C3.84143 11.92 3.64826 12 3.42178 12C3.1953 12 2.99547 11.92 2.82228 11.76C2.64909 11.6 2.5625 11.4 2.5625 11.16C2.5625 10.92 2.65576 10.72 2.84227 10.56L7.39846 6L2.84227 1.44C2.65576 1.28 2.5625 1.08 2.5625 0.84C2.5625 0.6 2.64909 0.400001 2.82228 0.240001C2.99547 0.0799999 3.1953 0 3.42178 0C3.64826 0 3.84143 0.0799999 4.0013 0.240001L9.15699 5.4C9.3435 5.56 9.43675 5.76 9.43675 6C9.43675 6.24 9.3435 6.44 9.15699 6.6Z" fill="white"/>
</g>
<defs>
<clipPath id="clip0_5_436">
<rect width="11.96" height="12" fill="white" transform="matrix(1 0 0 -1 0 12)"/>
</clipPath>
</defs>
</svg>
