<svg width="79" height="20" viewBox="0 0 79 20" fill="none" xmlns="http://www.w3.org/2000/svg">
<g clip-path="url(#clip0_5_527)">
<path d="M5.05859 4.35156C5.29297 3.88281 5.95703 3.90234 6.17188 4.35156L7.46094 6.94922L10.3125 7.35938C10.8203 7.4375 11.0156 8.0625 10.6445 8.43359L8.59375 10.4453L9.08203 13.2773C9.16016 13.7852 8.61328 14.1758 8.16406 13.9414L5.625 12.5938L3.06641 13.9414C2.61719 14.1758 2.07031 13.7852 2.14844 13.2773L2.63672 10.4453L0.585938 8.43359C0.214844 8.0625 0.410156 7.4375 0.917969 7.35938L3.78906 6.94922L5.05859 4.35156ZM21.3086 4.35156C21.543 3.88281 22.207 3.90234 22.4219 4.35156L23.7109 6.94922L26.5625 7.35938C27.0703 7.4375 27.2656 8.0625 26.8945 8.43359L24.8438 10.4453L25.332 13.2773C25.4102 13.7852 24.8633 14.1758 24.4141 13.9414L21.875 12.5938L19.3164 13.9414C18.8672 14.1758 18.3203 13.7852 18.3984 13.2773L18.8867 10.4453L16.8359 8.43359C16.4648 8.0625 16.6602 7.4375 17.168 7.35938L20.0391 6.94922L21.3086 4.35156ZM37.5586 4.35156C37.793 3.88281 38.457 3.90234 38.6719 4.35156L39.9609 6.94922L42.8125 7.35938C43.3203 7.4375 43.5156 8.0625 43.1445 8.43359L41.0938 10.4453L41.582 13.2773C41.6602 13.7852 41.1133 14.1758 40.6641 13.9414L38.125 12.5938L35.5664 13.9414C35.1172 14.1758 34.5703 13.7852 34.6484 13.2773L35.1367 10.4453L33.0859 8.43359C32.7148 8.0625 32.9102 7.4375 33.418 7.35938L36.2891 6.94922L37.5586 4.35156ZM53.8086 4.35156C54.043 3.88281 54.707 3.90234 54.9219 4.35156L56.2109 6.94922L59.0625 7.35938C59.5703 7.4375 59.7656 8.0625 59.3945 8.43359L57.3438 10.4453L57.832 13.2773C57.9102 13.7852 57.3633 14.1758 56.9141 13.9414L54.375 12.5938L51.8164 13.9414C51.3672 14.1758 50.8203 13.7852 50.8984 13.2773L51.3867 10.4453L49.3359 8.43359C48.9648 8.0625 49.1602 7.4375 49.668 7.35938L52.5391 6.94922L53.8086 4.35156ZM70.0586 4.35156C70.293 3.88281 70.957 3.90234 71.1719 4.35156L72.4609 6.94922L75.3125 7.35938C75.8203 7.4375 76.0156 8.0625 75.6445 8.43359L73.5938 10.4453L74.082 13.2773C74.1602 13.7852 73.6133 14.1758 73.1641 13.9414L70.625 12.5938L68.0664 13.9414C67.6172 14.1758 67.0703 13.7852 67.1484 13.2773L67.6367 10.4453L65.5859 8.43359C65.2148 8.0625 65.4102 7.4375 65.918 7.35938L68.7891 6.94922L70.0586 4.35156Z" fill="#E1C03F"/>
</g>
<defs>
<clipPath id="clip0_5_527">
<rect width="79" height="19.5" fill="white"/>
</clipPath>
</defs>
</svg>
