<svg width="40" height="40" viewBox="0 0 40 40" fill="none" xmlns="http://www.w3.org/2000/svg">
<path d="M26.1348 16.3281C26.1348 16.4746 26.1348 16.5918 26.1348 16.7383C26.1348 20.8105 23.0586 25.4688 17.4043 25.4688C15.6465 25.4688 14.0352 24.9707 12.6875 24.0918C12.9219 24.1211 13.1562 24.1504 13.4199 24.1504C14.8555 24.1504 16.1738 23.6523 17.2285 22.832C15.8809 22.8027 14.7383 21.9238 14.3574 20.6934C14.5625 20.7227 14.7383 20.752 14.9434 20.752C15.207 20.752 15.5 20.6934 15.7344 20.6348C14.3281 20.3418 13.2734 19.1113 13.2734 17.6172V17.5879C13.6836 17.8223 14.1816 17.9395 14.6797 17.9688C13.8301 17.4121 13.3027 16.4746 13.3027 15.4199C13.3027 14.834 13.4492 14.3066 13.7129 13.8672C15.2363 15.7129 17.5215 16.9434 20.0703 17.0898C20.0117 16.8555 19.9824 16.6211 19.9824 16.3867C19.9824 14.6875 21.3594 13.3105 23.0586 13.3105C23.9375 13.3105 24.7285 13.6621 25.3145 14.2773C25.9883 14.1309 26.6621 13.8672 27.248 13.5156C27.0137 14.248 26.5449 14.834 25.9004 15.2148C26.5156 15.1562 27.1309 14.9805 27.6582 14.7461C27.248 15.3613 26.7207 15.8887 26.1348 16.3281Z" fill="white"/>
</svg>
