<svg width="108" height="26" viewBox="0 0 108 26" fill="none" xmlns="http://www.w3.org/2000/svg">
<g clip-path="url(#clip0_5_743)">
<g clip-path="url(#clip1_5_743)">
<path d="M7.20844 0.500213C11.1984 0.500213 12.9134 2.35522 12.9134 6.13522V7.01022C12.9134 9.53022 12.1434 11.1402 10.4284 11.9452C12.4934 12.7502 13.2984 14.6052 13.2984 17.1952V19.1902C13.2984 22.9702 11.3034 25.0002 7.45344 25.0002H1.39844V0.500213H7.20844ZM6.96344 13.9752H5.24844V21.5002H7.45344C8.74844 21.5002 9.44844 20.9052 9.44844 19.0852V16.9502C9.44844 14.6752 8.71344 13.9752 6.96344 13.9752ZM7.10344 4.00021H5.24844V10.4752H6.75344C8.18844 10.4752 9.06344 9.84521 9.06344 7.88522V6.52022C9.06344 4.77022 8.46844 4.00021 7.10344 4.00021ZM20.9022 6.13522V19.3652C20.9022 21.1152 21.6722 21.7802 22.8972 21.7802C24.1222 21.7802 24.8922 21.1152 24.8922 19.3652V6.13522C24.8922 4.38522 24.1222 3.72021 22.8972 3.72021C21.6722 3.72021 20.9022 4.38522 20.9022 6.13522ZM17.0522 19.1202V6.38022C17.0522 2.46022 19.1172 0.220215 22.8972 0.220215C26.6772 0.220215 28.7422 2.46022 28.7422 6.38022V19.1202C28.7422 23.0402 26.6772 25.2802 22.8972 25.2802C19.1172 25.2802 17.0522 23.0402 17.0522 19.1202ZM41.7564 0.500213H45.3264L41.3014 12.4002L45.6064 25.0002H41.5464L38.3964 15.3052L35.2114 25.0002H31.6064L35.9114 12.4002L31.8864 0.500213H35.8764L38.7814 9.53021L41.7564 0.500213ZM56.2828 15.8652H59.9228V19.1202C59.9228 23.0402 57.9628 25.2802 54.1828 25.2802C50.4028 25.2802 48.4428 23.0402 48.4428 19.1202V6.38022C48.4428 2.46022 50.4028 0.220215 54.1828 0.220215C57.9628 0.220215 59.9228 2.46022 59.9228 6.38022V8.76021H56.2828V6.13522C56.2828 4.38522 55.5128 3.72021 54.2878 3.72021C53.0628 3.72021 52.2928 4.38522 52.2928 6.13522V19.3652C52.2928 21.1152 53.0628 21.7452 54.2878 21.7452C55.5128 21.7452 56.2828 21.1152 56.2828 19.3652V15.8652ZM72.5488 0.500213L76.4688 25.0002H72.5838L71.9188 20.5552H67.1938L66.5288 25.0002H62.9938L66.9138 0.500213H72.5488ZM69.5388 4.84022L67.6838 17.2302H71.3938L69.5388 4.84022ZM91.9817 25.0002H88.0617C87.8517 24.3702 87.7117 23.9852 87.7117 21.9902V18.1402C87.7117 15.8652 86.9417 15.0252 85.1917 15.0252H83.8617V25.0002H80.0117V0.500213H85.8217C89.8117 0.500213 91.5267 2.35522 91.5267 6.13522V8.06022C91.5267 10.5802 90.7217 12.2252 89.0067 13.0302C90.9317 13.8352 91.5617 15.6902 91.5617 18.2452V22.0252C91.5617 23.2152 91.5967 24.0902 91.9817 25.0002ZM85.7167 4.00021H83.8617V11.5252H85.3667C86.8017 11.5252 87.6767 10.8952 87.6767 8.93521V6.52022C87.6767 4.77022 87.0817 4.00021 85.7167 4.00021ZM95.3537 6.38022C95.3537 2.46022 97.2787 0.220215 101.023 0.220215C104.768 0.220215 106.693 2.46022 106.693 6.38022V7.15022H103.053V6.13522C103.053 4.38522 102.353 3.72021 101.128 3.72021C99.9037 3.72021 99.2037 4.38522 99.2037 6.13522C99.2037 11.1752 106.728 12.1202 106.728 19.1202C106.728 23.0402 104.768 25.2802 100.988 25.2802C97.2087 25.2802 95.2487 23.0402 95.2487 19.1202V17.6152H98.8887V19.3652C98.8887 21.1152 99.6587 21.7452 100.883 21.7452C102.108 21.7452 102.878 21.1152 102.878 19.3652C102.878 14.3252 95.3537 13.3802 95.3537 6.38022Z" fill="white"/>
</g>
</g>
<defs>
<clipPath id="clip0_5_743">
<rect width="108" height="26" fill="white"/>
</clipPath>
<clipPath id="clip1_5_743">
<rect width="108" height="26" fill="white"/>
</clipPath>
</defs>
</svg>
