<svg width="40" height="40" viewBox="0 0 40 40" fill="none" xmlns="http://www.w3.org/2000/svg">
<path d="M20.1822 16.0059C22.0279 16.0059 23.5514 17.5293 23.5514 19.375C23.5514 21.25 22.0279 22.7441 20.1822 22.7441C18.3072 22.7441 16.8131 21.25 16.8131 19.375C16.8131 17.5293 18.3072 16.0059 20.1822 16.0059ZM20.1822 21.5723C21.3834 21.5723 22.3502 20.6055 22.3502 19.375C22.3502 18.1738 21.3834 17.207 20.1822 17.207C18.9517 17.207 17.985 18.1738 17.985 19.375C17.985 20.6055 18.981 21.5723 20.1822 21.5723ZM24.4596 15.8887C24.4596 16.3281 24.108 16.6797 23.6685 16.6797C23.2291 16.6797 22.8775 16.3281 22.8775 15.8887C22.8775 15.4492 23.2291 15.0977 23.6685 15.0977C24.108 15.0977 24.4596 15.4492 24.4596 15.8887ZM26.6861 16.6797C26.7447 17.7637 26.7447 21.0156 26.6861 22.0996C26.6275 23.1543 26.3932 24.0625 25.6314 24.8535C24.8697 25.6152 23.9322 25.8496 22.8775 25.9082C21.7935 25.9668 18.5416 25.9668 17.4576 25.9082C16.4029 25.8496 15.4947 25.6152 14.7037 24.8535C13.942 24.0625 13.7076 23.1543 13.649 22.0996C13.5904 21.0156 13.5904 17.7637 13.649 16.6797C13.7076 15.625 13.942 14.6875 14.7037 13.9258C15.4947 13.1641 16.4029 12.9297 17.4576 12.8711C18.5416 12.8125 21.7935 12.8125 22.8775 12.8711C23.9322 12.9297 24.8697 13.1641 25.6314 13.9258C26.3932 14.6875 26.6275 15.625 26.6861 16.6797ZM25.2799 23.2422C25.6314 22.3926 25.5435 20.3418 25.5435 19.375C25.5435 18.4375 25.6314 16.3867 25.2799 15.5078C25.0455 14.9512 24.606 14.4824 24.0494 14.2773C23.1705 13.9258 21.1197 14.0137 20.1822 14.0137C19.2154 14.0137 17.1646 13.9258 16.315 14.2773C15.7291 14.5117 15.2896 14.9512 15.0553 15.5078C14.7037 16.3867 14.7916 18.4375 14.7916 19.375C14.7916 20.3418 14.7037 22.3926 15.0553 23.2422C15.2896 23.8281 15.7291 24.2676 16.315 24.502C17.1646 24.8535 19.2154 24.7656 20.1822 24.7656C21.1197 24.7656 23.1705 24.8535 24.0494 24.502C24.606 24.2676 25.0748 23.8281 25.2799 23.2422Z" fill="white"/>
</svg>
