<svg width="40" height="40" viewBox="0 0 40 40" fill="none" xmlns="http://www.w3.org/2000/svg">
<path d="M16.5494 25H13.8248V16.2402H16.5494V25ZM15.1725 15.0684C14.3228 15.0684 13.6197 14.3359 13.6197 13.457C13.6197 12.6074 14.3228 11.9043 15.1725 11.9043C16.0514 11.9043 16.7545 12.6074 16.7545 13.457C16.7545 14.3359 16.0514 15.0684 15.1725 15.0684ZM26.7154 25H24.0201V20.752C24.0201 19.7266 23.9908 18.4375 22.5846 18.4375C21.1783 18.4375 20.9732 19.5215 20.9732 20.6641V25H18.2486V16.2402H20.856V17.4414H20.8853C21.2662 16.7676 22.1451 16.0352 23.4635 16.0352C26.2174 16.0352 26.7447 17.8516 26.7447 20.1953V25H26.7154Z" fill="white"/>
</svg>
