<svg width="18" height="18" viewBox="0 0 18 18" fill="none" xmlns="http://www.w3.org/2000/svg">
<path d="M3.00094 1.68007C2.44094 1.68007 1.96094 1.88007 1.56094 2.28007C1.16094 2.68007 0.960938 3.17007 0.960938 3.75007C0.960938 4.33007 1.16094 4.82007 1.56094 5.22007C1.96094 5.62007 2.44094 5.82007 3.00094 5.82007C3.56094 5.82007 4.04094 5.62007 4.44094 5.22007C4.84094 4.82007 5.04094 4.33007 5.04094 3.75007C5.04094 3.17007 4.84094 2.68007 4.44094 2.28007C4.04094 1.88007 3.56094 1.68007 3.00094 1.68007ZM3.00094 2.82007C3.24094 2.82007 3.46094 2.91007 3.66094 3.09007C3.86094 3.27007 3.96094 3.49007 3.96094 3.75007C3.96094 4.01007 3.86094 4.23007 3.66094 4.41007C3.46094 4.59007 3.24094 4.68007 3.00094 4.68007C2.76094 4.68007 2.54094 4.59007 2.34094 4.41007C2.14094 4.23007 2.04094 4.01007 2.04094 3.75007C2.04094 3.49007 2.14094 3.27007 2.34094 3.09007C2.54094 2.91007 2.76094 2.82007 3.00094 2.82007ZM3.00094 12.1801C2.44094 12.1801 1.96094 12.3801 1.56094 12.7801C1.16094 13.1801 0.960938 13.6701 0.960938 14.2501C0.960938 14.8301 1.16094 15.3201 1.56094 15.7201C1.96094 16.1201 2.44094 16.3201 3.00094 16.3201C3.56094 16.3201 4.04094 16.1201 4.44094 15.7201C4.84094 15.3201 5.04094 14.8301 5.04094 14.2501C5.04094 13.6701 4.84094 13.1801 4.44094 12.7801C4.04094 12.3801 3.56094 12.1801 3.00094 12.1801ZM3.00094 13.3201C3.24094 13.3201 3.46094 13.4101 3.66094 13.5901C3.86094 13.7701 3.96094 13.9901 3.96094 14.2501C3.96094 14.5101 3.86094 14.7301 3.66094 14.9101C3.46094 15.0901 3.24094 15.1801 3.00094 15.1801C2.76094 15.1801 2.54094 15.0901 2.34094 14.9101C2.14094 14.7301 2.04094 14.5101 2.04094 14.2501C2.04094 13.9901 2.14094 13.7701 2.34094 13.5901C2.54094 13.4101 2.76094 13.3201 3.00094 13.3201ZM9.00094 1.68007C8.44094 1.68007 7.96094 1.88007 7.56094 2.28007C7.16094 2.68007 6.96094 3.17007 6.96094 3.75007C6.96094 4.33007 7.16094 4.82007 7.56094 5.22007C7.96094 5.62007 8.44094 5.82007 9.00094 5.82007C9.56094 5.82007 10.0409 5.62007 10.4409 5.22007C10.8409 4.82007 11.0409 4.33007 11.0409 3.75007C11.0409 3.17007 10.8409 2.68007 10.4409 2.28007C10.0409 1.88007 9.56094 1.68007 9.00094 1.68007ZM9.00094 2.82007C9.24094 2.82007 9.46094 2.91007 9.66094 3.09007C9.86094 3.27007 9.96094 3.49007 9.96094 3.75007C9.96094 4.01007 9.86094 4.23007 9.66094 4.41007C9.46094 4.59007 9.24094 4.68007 9.00094 4.68007C8.76094 4.68007 8.54094 4.59007 8.34094 4.41007C8.14094 4.23007 8.04094 4.01007 8.04094 3.75007C8.04094 3.49007 8.14094 3.27007 8.34094 3.09007C8.54094 2.91007 8.76094 2.82007 9.00094 2.82007ZM9.00094 12.1801C8.44094 12.1801 7.96094 12.3801 7.56094 12.7801C7.16094 13.1801 6.96094 13.6701 6.96094 14.2501C6.96094 14.8301 7.16094 15.3201 7.56094 15.7201C7.96094 16.1201 8.44094 16.3201 9.00094 16.3201C9.56094 16.3201 10.0409 16.1201 10.4409 15.7201C10.8409 15.3201 11.0409 14.8301 11.0409 14.2501C11.0409 13.6701 10.8409 13.1801 10.4409 12.7801C10.0409 12.3801 9.56094 12.1801 9.00094 12.1801ZM9.00094 13.3201C9.24094 13.3201 9.46094 13.4101 9.66094 13.5901C9.86094 13.7701 9.96094 13.9901 9.96094 14.2501C9.96094 14.5101 9.86094 14.7301 9.66094 14.9101C9.46094 15.0901 9.24094 15.1801 9.00094 15.1801C8.76094 15.1801 8.54094 15.0901 8.34094 14.9101C8.14094 14.7301 8.04094 14.5101 8.04094 14.2501C8.04094 13.9901 8.14094 13.7701 8.34094 13.5901C8.54094 13.4101 8.76094 13.3201 9.00094 13.3201ZM15.0009 1.68007C14.4409 1.68007 13.9609 1.88007 13.5609 2.28007C13.1609 2.68007 12.9609 3.17007 12.9609 3.75007C12.9609 4.33007 13.1609 4.82007 13.5609 5.22007C13.9609 5.62007 14.4409 5.82007 15.0009 5.82007C15.5609 5.82007 16.0409 5.62007 16.4409 5.22007C16.8409 4.82007 17.0409 4.33007 17.0409 3.75007C17.0409 3.17007 16.8409 2.68007 16.4409 2.28007C16.0409 1.88007 15.5609 1.68007 15.0009 1.68007ZM15.0009 2.82007C15.2409 2.82007 15.4609 2.91007 15.6609 3.09007C15.8609 3.27007 15.9609 3.49007 15.9609 3.75007C15.9609 4.01007 15.8609 4.23007 15.6609 4.41007C15.4609 4.59007 15.2409 4.68007 15.0009 4.68007C14.7609 4.68007 14.5409 4.59007 14.3409 4.41007C14.1409 4.23007 14.0409 4.01007 14.0409 3.75007C14.0409 3.49007 14.1409 3.27007 14.3409 3.09007C14.5409 2.91007 14.7609 2.82007 15.0009 2.82007ZM15.0009 12.1801C14.4409 12.1801 13.9609 12.3801 13.5609 12.7801C13.1609 13.1801 12.9609 13.6701 12.9609 14.2501C12.9609 14.8301 13.1609 15.3201 13.5609 15.7201C13.9609 16.1201 14.4409 16.3201 15.0009 16.3201C15.5609 16.3201 16.0409 16.1201 16.4409 15.7201C16.8409 15.3201 17.0409 14.8301 17.0409 14.2501C17.0409 13.6701 16.8409 13.1801 16.4409 12.7801C16.0409 12.3801 15.5609 12.1801 15.0009 12.1801ZM15.0009 13.3201C15.2409 13.3201 15.4609 13.4101 15.6609 13.5901C15.8609 13.7701 15.9609 13.9901 15.9609 14.2501C15.9609 14.5101 15.8609 14.7301 15.6609 14.9101C15.4609 15.0901 15.2409 15.1801 15.0009 15.1801C14.7609 15.1801 14.5409 15.0901 14.3409 14.9101C14.1409 14.7301 14.0409 14.5101 14.0409 14.2501C14.0409 13.9901 14.1409 13.7701 14.3409 13.5901C14.5409 13.4101 14.7609 13.3201 15.0009 13.3201ZM2.46094 5.22007V12.7201C2.46094 12.8801 2.51094 13.0201 2.61094 13.1401C2.71094 13.2601 2.84094 13.3201 3.00094 13.3201C3.16094 13.3201 3.29094 13.2601 3.39094 13.1401C3.49094 13.0201 3.54094 12.9001 3.54094 12.7801V5.22007C3.54094 5.10007 3.49094 4.98007 3.39094 4.86007C3.29094 4.74007 3.16094 4.68007 3.00094 4.68007C2.84094 4.68007 2.71094 4.74007 2.61094 4.86007C2.51094 4.98007 2.46094 5.10007 2.46094 5.22007ZM8.46094 5.22007V12.7201C8.46094 12.8801 8.51094 13.0201 8.61094 13.1401C8.71094 13.2601 8.84094 13.3201 9.00094 13.3201C9.16094 13.3201 9.29094 13.2601 9.39094 13.1401C9.49094 13.0201 9.54094 12.9001 9.54094 12.7801V5.22007C9.54094 5.10007 9.49094 4.98007 9.39094 4.86007C9.29094 4.74007 9.16094 4.68007 9.00094 4.68007C8.84094 4.68007 8.71094 4.74007 8.61094 4.86007C8.51094 4.98007 8.46094 5.10007 8.46094 5.22007ZM14.4609 5.22007V8.22007C14.4609 8.30007 14.4409 8.36007 14.4009 8.40007C14.3609 8.44007 14.3209 8.46007 14.2809 8.46007H3.00094C2.84094 8.46007 2.71094 8.51007 2.61094 8.61007C2.51094 8.71007 2.46094 8.84007 2.46094 9.00007C2.46094 9.16007 2.51094 9.29007 2.61094 9.39007C2.71094 9.49007 2.84094 9.54007 3.00094 9.54007H14.2809C14.6409 9.54007 14.9409 9.42007 15.1809 9.18007C15.4209 8.94007 15.5409 8.62007 15.5409 8.22007V5.28007C15.5409 5.12007 15.4909 4.98007 15.3909 4.86007C15.2909 4.74007 15.1609 4.68007 15.0009 4.68007C14.8409 4.68007 14.7109 4.74007 14.6109 4.86007C14.5109 4.98007 14.4609 5.10007 14.4609 5.22007Z" fill="#050B20"/>
</svg>
